<svg width="26" height="26" viewBox="0 0 26 26" fill="none" xmlns="http://www.w3.org/2000/svg">
<g clip-path="url(#clip0_3_10)">
<path d="M15.2967 15.2967C14.9992 15.616 14.6404 15.8721 14.2417 16.0497C13.843 16.2273 13.4127 16.3229 12.9763 16.3306C12.5399 16.3383 12.1065 16.258 11.7018 16.0945C11.2971 15.9311 10.9295 15.6878 10.6209 15.3792C10.3123 15.0706 10.069 14.7029 9.90551 14.2983C9.74205 13.8936 9.66178 13.4601 9.66948 13.0237C9.67718 12.5874 9.77269 12.157 9.95032 11.7583C10.128 11.3597 10.3841 11.0009 10.7034 10.7033M19.435 19.435C17.5832 20.8466 15.3282 21.6286 13 21.6667C5.41671 21.6667 1.08337 13 1.08337 13C2.43092 10.4887 4.29994 8.29466 6.56504 6.565L19.435 19.435ZM10.725 4.59333C11.4707 4.41879 12.2342 4.33153 13 4.33333C20.5834 4.33333 24.9167 13 24.9167 13C24.2591 14.2302 23.4748 15.3885 22.5767 16.4558L10.725 4.59333Z" stroke="#E5E5E8" stroke-width="2.66667" stroke-linecap="round" stroke-linejoin="round"/>
<path d="M1.08337 1.08333L24.9167 24.9167" stroke="#E5E5E8" stroke-width="2.66667" stroke-linecap="round" stroke-linejoin="round"/>
</g>
<defs>
<clipPath id="clip0_3_10">
<rect width="26" height="26" fill="white"/>
</clipPath>
</defs>
</svg>
