<svg width="45" height="26" viewBox="0 0 45 26" fill="none" xmlns="http://www.w3.org/2000/svg">
<path d="M32.6955 0.608215C25.911 0.608215 20.391 6.27388 20.391 13.2371C20.391 17.8131 16.764 21.536 12.3053 21.536C7.8465 21.536 4.21875 17.8131 4.21875 13.2371C4.21875 8.6611 7.84575 4.93811 12.3045 4.93811C13.914 4.93811 15.468 5.42162 16.7985 6.33667C17.2432 6.64337 17.6587 6.99409 18.0322 7.37945C18.828 8.19924 20.2178 8.20213 21.015 7.38595C21.8393 6.54378 21.8422 5.17048 21.0217 4.32399C20.4517 3.73729 19.821 3.20399 19.1475 2.74069C17.1195 1.34574 14.754 0.608937 12.3045 0.608937C5.52 0.608216 0 6.27388 0 13.2371C0 20.2003 5.52 25.8659 12.3045 25.8659C19.089 25.8659 24.609 20.2003 24.609 13.2371C24.609 8.6611 28.236 4.93811 32.6947 4.93811C37.1535 4.93811 40.7812 8.6611 40.7812 13.2371C40.7812 17.8131 37.1543 21.536 32.6955 21.536C30.5363 21.536 28.506 20.6737 26.979 19.107C26.1825 18.2893 24.7927 18.2893 23.9955 19.107C23.5972 19.5161 23.3783 20.0596 23.3783 20.6376C23.3783 21.2164 23.598 21.7605 23.9963 22.1682C26.3197 24.5533 29.4098 25.8659 32.6955 25.8659C39.48 25.8659 45 20.2003 45 13.2371C45 6.27388 39.48 0.608215 32.6955 0.608215Z" fill="#E5E5E8"/>
</svg>
